<svg width="46" height="46" viewBox="0 0 46 46" fill="none" xmlns="http://www.w3.org/2000/svg">
<mask id="mask0_2025_785" style="mask-type:alpha" maskUnits="userSpaceOnUse" x="0" y="0" width="46" height="46">
<circle cx="23" cy="23" r="23" fill="#D9D9D9" style="fill:#D9D9D9;fill:color(display-p3 0.8510 0.8510 0.8510);fill-opacity:1;"/>
</mask>
<g mask="url(#mask0_2025_785)">
<path d="M25 17C26.28 17 27.68 17 29 17C30.27 17 31.68 17 33 17C33.3765 17 33.7579 17.0003 34.1495 17.0152C35.8789 17.0811 36.9972 18.6705 36.9979 20.4011C36.9985 21.7916 37 23.3211 37 24.5C37 26.28 36.99 26.18 37 28C36.8769 30.7452 34.4817 32.0763 31.734 32.1111C30.8239 32.1226 29.9145 32.1272 29.005 32.1272C27.725 32.1272 26.445 32.1272 25.125 32.1372C24.6861 32.1175 24.3386 32.0907 24.0584 32.0579C22.1705 31.8366 21.0016 29.632 21.0006 27.7313C21 26.6542 21 25.5581 21 24.5C21 23.32 21 22 21 21C21 20 21.5 17 25 17Z" fill="#121212" style="fill:#121212;fill:color(display-p3 0.0706 0.0706 0.0706);fill-opacity:1;"/>
<path d="M0.00052297 23.0058C-0.00041781 21.9012 0.895416 21 1.99999 21C6.9561 21 11.9248 21 16.9999 21C18.1045 21 19 21.8954 19 23C19 25.3156 19 27.6395 19 29.9999C19 31.1045 18.1046 32 17 32C14.3541 32 11.7043 32 9.03448 32C4.11044 32 0.0150088 29.052 0.00232328 24.1279C0.00141327 23.7747 0.000859709 23.4012 0.00052297 23.0058Z" fill="#121212" style="fill:#121212;fill:color(display-p3 0.0706 0.0706 0.0706);fill-opacity:1;"/>
<path d="M17 3.54147C17 1.68765 18.6771 0.21319 20.5309 0.221666C21.9714 0.228252 23.5375 0.175312 25.0024 0.119526C27.21 0.0354586 29 1.79083 29 3.99997C29 6.97466 29 9.96387 29 12.9999C29 14.1045 28.1046 15 27 15C24.3543 15 21.6995 15 19.0001 15C17.8955 15 17 14.1046 17 13C17 9.86789 17 6.72768 17 3.54147Z" fill="#121212" style="fill:#121212;fill:color(display-p3 0.0706 0.0706 0.0706);fill-opacity:1;"/>
<path d="M12.5001 34C13.2001 34 13.78 34 14.5 34C15.2 34 16.27 34 17 34C18.5697 34 19.6913 34.0408 20.5045 34.1107C22.2579 34.2614 23.0472 35.9797 23.0645 37.7395C23.0737 38.6816 23.0713 39.6237 23.0611 40.5633C23.0511 41.5733 23.0411 42.5833 23.0311 43.6333C23.0251 44.102 23.0191 44.5706 23.0131 45.0458C23.0064 45.5812 22.5709 46.0184 22.0355 46.0183C10.3405 46.0153 5.66286 39.1766 4.13232 36.0395C3.70843 35.1707 4.17572 34.3091 5.1389 34.2265C7.7813 34 12.5001 34 12.5001 34Z" fill="#121212" style="fill:#121212;fill:color(display-p3 0.0706 0.0706 0.0706);fill-opacity:1;"/>
<path d="M12 4.00007C12.5659 4.16066 13.183 4.53569 13.7096 4.91777C14.5804 5.54971 14.9999 6.60157 15.0017 7.67758C15.004 9.11965 15.0072 10.5599 15 12.0001C15.01 13.1001 15 14.3701 15 15.5001C15 16.0531 15 16.4838 14.9892 16.83C14.9395 18.4205 13.106 19.0002 11.5147 19.0047C9.99258 19.0091 8.53919 19.0132 7 19.0001C5.71 18.9901 4.33 19.0101 3 19.0001C1.60813 18.9862 0.693642 17.5371 1.06849 16.1966C1.60439 14.2801 1.82309 12.3692 2.5 10C2.94 9.31 4.39 8.37507 4.84 7.67507C5.5 9 8.97643 3.14203 12 4.00007Z" fill="#121212" style="fill:#121212;fill:color(display-p3 0.0706 0.0706 0.0706);fill-opacity:1;"/>
<path d="M31.4735 3.56951C31.7904 3.16259 32.2329 2.83171 32.748 2.85682C33.3544 2.88637 34.176 3.12692 35.0448 3.45078C36.9828 4.1732 40.8356 6.22141 41.2912 8.23887C41.5784 9.51078 43.0731 11.4214 42.8133 12.6992C42.7759 12.8828 42.7449 13.0529 42.7095 13.2263C42.4817 14.3424 41.3995 15.0141 40.2604 15.0107C39.1624 15.0074 38.0451 14.9937 37 15C36.09 15.01 35.44 14.99 34.5 15C32.1429 14.8971 31.0277 12.6998 31.003 10.3405C30.9983 9.89383 30.9974 9.44694 31 9.00005C30.99 8.09005 31.0001 7.18005 31.0001 6.25005C31.1003 4.51609 31.046 4.1184 31.4735 3.56951Z" fill="#121212" style="fill:#121212;fill:color(display-p3 0.0706 0.0706 0.0706);fill-opacity:1;"/>
<path d="M25 36C25 34.8955 25.8954 34 27 34C30.3059 34 33.6221 34 36.9999 34C38.1045 34 39.006 34.8972 38.9598 36.0008C38.9526 36.1719 38.9446 36.3382 38.936 36.5004C38.7106 40.7189 35.1879 44.0642 31.0299 44.8106C30.1194 44.974 29.3216 45.1543 28.6178 45.3515C27.0308 45.7962 25 44.6481 25 43C25 40.6851 25 38.3585 25 36Z" fill="#121212" style="fill:#121212;fill:color(display-p3 0.0706 0.0706 0.0706);fill-opacity:1;"/>
<path d="M39 18C39 17.4477 39.61 17 40.1623 17C43.476 17 45.9818 19.6869 45.8217 22.9967C45.7665 24.1377 45.7062 25.2819 45.6529 26.4311C45.5103 29.5048 43.2447 32 40.1677 32C39.6549 32 39 31.5843 39 31.0714C39 26.7546 39 22.4306 39 18Z" fill="#121212" style="fill:#121212;fill:color(display-p3 0.0706 0.0706 0.0706);fill-opacity:1;"/>
</g>
</svg>
